<mxfile host="Electron" modified="2024-04-27T10:12:02.592Z" agent="Mozilla/5.0 (Macintosh; Intel Mac OS X 10_15_7) AppleWebKit/537.36 (KHTML, like Gecko) draw.io/24.2.5 Chrome/120.0.6099.109 Electron/28.1.0 Safari/537.36" etag="Ylu2JLmH3GmXQBGnkwm4" version="24.2.5" type="device">
  <diagram name="Страница — 1" id="BP6s2SFrimXCzxBh_ghw">
    <mxGraphModel dx="1632" dy="853" grid="1" gridSize="10" guides="1" tooltips="1" connect="1" arrows="1" fold="1" page="1" pageScale="1" pageWidth="827" pageHeight="1169" math="0" shadow="0">
      <root>
        <mxCell id="0" />
        <mxCell id="1" parent="0" />
        <mxCell id="Mp42Qs7QL4VvIIkIz4l6-1" value="Н_СЕССИЯ" style="rounded=0;whiteSpace=wrap;html=1;" parent="1" vertex="1">
          <mxGeometry x="80" y="80" width="120" height="60" as="geometry" />
        </mxCell>
        <mxCell id="Mp42Qs7QL4VvIIkIz4l6-2" value="Н_ВЕДОМОСТИ" style="rounded=0;whiteSpace=wrap;html=1;" parent="1" vertex="1">
          <mxGeometry x="310" y="80" width="120" height="60" as="geometry" />
        </mxCell>
        <mxCell id="Mp42Qs7QL4VvIIkIz4l6-3" value="Н_ЛЮДИ" style="rounded=0;whiteSpace=wrap;html=1;" parent="1" vertex="1">
          <mxGeometry x="550" y="80" width="120" height="60" as="geometry" />
        </mxCell>
        <mxCell id="Mp42Qs7QL4VvIIkIz4l6-4" value="&lt;span style=&quot;color: rgba(255, 255, 255, 0.85); font-family: &amp;quot;Helvetica Neue&amp;quot;; text-align: start; background-color: initial;&quot;&gt;&lt;font style=&quot;font-size: 24px;&quot;&gt;⋈&lt;/font&gt;&lt;/span&gt;Н_ЛЮДИ.ИД = Н_ВЕДОМОСТИ.ЧЛВК_ИД" style="rounded=0;whiteSpace=wrap;html=1;" parent="1" vertex="1">
          <mxGeometry x="370" y="210" width="270" height="60" as="geometry" />
        </mxCell>
        <mxCell id="Mp42Qs7QL4VvIIkIz4l6-5" value="" style="endArrow=classic;html=1;rounded=0;exitX=0.5;exitY=1;exitDx=0;exitDy=0;entryX=0.25;entryY=0;entryDx=0;entryDy=0;" parent="1" source="Mp42Qs7QL4VvIIkIz4l6-2" target="Mp42Qs7QL4VvIIkIz4l6-4" edge="1">
          <mxGeometry width="50" height="50" relative="1" as="geometry">
            <mxPoint x="390" y="360" as="sourcePoint" />
            <mxPoint x="440" y="310" as="targetPoint" />
          </mxGeometry>
        </mxCell>
        <mxCell id="Mp42Qs7QL4VvIIkIz4l6-6" value="" style="endArrow=classic;html=1;rounded=0;exitX=0.5;exitY=1;exitDx=0;exitDy=0;entryX=0.75;entryY=0;entryDx=0;entryDy=0;" parent="1" source="Mp42Qs7QL4VvIIkIz4l6-3" target="Mp42Qs7QL4VvIIkIz4l6-4" edge="1">
          <mxGeometry width="50" height="50" relative="1" as="geometry">
            <mxPoint x="390" y="360" as="sourcePoint" />
            <mxPoint x="440" y="310" as="targetPoint" />
          </mxGeometry>
        </mxCell>
        <mxCell id="Mp42Qs7QL4VvIIkIz4l6-7" value="&lt;span style=&quot;color: rgba(255, 255, 255, 0.85); font-family: &amp;quot;Helvetica Neue&amp;quot;; text-align: start; background-color: initial;&quot;&gt;&lt;font style=&quot;font-size: 24px;&quot;&gt;⋈&lt;/font&gt;&lt;/span&gt;Н_ЛЮДИ.ИД = Н_СЕССИЯ.ЧЛВК_ИД" style="rounded=0;whiteSpace=wrap;html=1;" parent="1" vertex="1">
          <mxGeometry x="140" y="360" width="250" height="60" as="geometry" />
        </mxCell>
        <mxCell id="Mp42Qs7QL4VvIIkIz4l6-8" value="" style="endArrow=classic;html=1;rounded=0;exitX=0.5;exitY=1;exitDx=0;exitDy=0;entryX=0.75;entryY=0;entryDx=0;entryDy=0;" parent="1" source="Mp42Qs7QL4VvIIkIz4l6-4" target="Mp42Qs7QL4VvIIkIz4l6-7" edge="1">
          <mxGeometry width="50" height="50" relative="1" as="geometry">
            <mxPoint x="390" y="360" as="sourcePoint" />
            <mxPoint x="440" y="310" as="targetPoint" />
          </mxGeometry>
        </mxCell>
        <mxCell id="Mp42Qs7QL4VvIIkIz4l6-9" value="" style="endArrow=classic;html=1;rounded=0;exitX=0.5;exitY=1;exitDx=0;exitDy=0;entryX=0.25;entryY=0;entryDx=0;entryDy=0;" parent="1" source="Mp42Qs7QL4VvIIkIz4l6-1" target="Mp42Qs7QL4VvIIkIz4l6-7" edge="1">
          <mxGeometry width="50" height="50" relative="1" as="geometry">
            <mxPoint x="390" y="360" as="sourcePoint" />
            <mxPoint x="440" y="310" as="targetPoint" />
          </mxGeometry>
        </mxCell>
        <mxCell id="Mp42Qs7QL4VvIIkIz4l6-10" value="&lt;div style=&quot;background-color:#1e1f22;color:#bcbec4&quot;&gt;&lt;pre style=&quot;font-family:&#39;JetBrains Mono&#39;,monospace;font-size:9,8pt;&quot;&gt;&lt;span style=&quot;color: rgba(255, 255, 255, 0.85); font-family: &amp;quot;Helvetica Neue&amp;quot;; text-align: start; white-space: normal;&quot;&gt;&lt;font style=&quot;font-size: 24px;&quot;&gt;σ&lt;/font&gt;&lt;/span&gt;Н_ЛЮДИ.ОТЧЕСТВО &amp;lt; &lt;span style=&quot;color:#6aab73;&quot;&gt;Георгиевич&lt;/span&gt;&lt;/pre&gt;&lt;/div&gt;" style="rounded=0;whiteSpace=wrap;html=1;" parent="1" vertex="1">
          <mxGeometry x="284" y="525" width="260" height="60" as="geometry" />
        </mxCell>
        <mxCell id="Mp42Qs7QL4VvIIkIz4l6-11" value="" style="endArrow=classic;html=1;rounded=0;exitX=0.5;exitY=1;exitDx=0;exitDy=0;entryX=0.5;entryY=0;entryDx=0;entryDy=0;" parent="1" source="Mp42Qs7QL4VvIIkIz4l6-7" target="Mp42Qs7QL4VvIIkIz4l6-10" edge="1">
          <mxGeometry width="50" height="50" relative="1" as="geometry">
            <mxPoint x="390" y="560" as="sourcePoint" />
            <mxPoint x="440" y="510" as="targetPoint" />
          </mxGeometry>
        </mxCell>
        <mxCell id="Mp42Qs7QL4VvIIkIz4l6-12" value="&lt;div style=&quot;background-color:#1e1f22;color:#bcbec4&quot;&gt;&lt;pre style=&quot;font-family:&#39;JetBrains Mono&#39;,monospace;font-size:9,8pt;&quot;&gt;&lt;span style=&quot;color: rgba(255, 255, 255, 0.85); font-family: &amp;quot;Helvetica Neue&amp;quot;; text-align: start; white-space: normal;&quot;&gt;&lt;font style=&quot;font-size: 24px;&quot;&gt;σ&lt;/font&gt;&lt;/span&gt;Н_ВЕДОМОСТИ.ИД = &lt;span style=&quot;color:#6aab73;&quot;&gt;1457443&lt;/span&gt;&lt;/pre&gt;&lt;/div&gt;" style="rounded=0;whiteSpace=wrap;html=1;" parent="1" vertex="1">
          <mxGeometry x="286" y="660" width="256" height="60" as="geometry" />
        </mxCell>
        <mxCell id="Mp42Qs7QL4VvIIkIz4l6-13" value="" style="endArrow=classic;html=1;rounded=0;exitX=0.5;exitY=1;exitDx=0;exitDy=0;entryX=0.5;entryY=0;entryDx=0;entryDy=0;" parent="1" source="Mp42Qs7QL4VvIIkIz4l6-10" target="Mp42Qs7QL4VvIIkIz4l6-12" edge="1">
          <mxGeometry width="50" height="50" relative="1" as="geometry">
            <mxPoint x="390" y="630" as="sourcePoint" />
            <mxPoint x="440" y="580" as="targetPoint" />
          </mxGeometry>
        </mxCell>
        <mxCell id="Mp42Qs7QL4VvIIkIz4l6-14" value="&lt;div style=&quot;background-color:#1e1f22;color:#bcbec4&quot;&gt;&lt;pre style=&quot;font-family:&#39;JetBrains Mono&#39;,monospace;font-size:9,8pt;&quot;&gt;&lt;span style=&quot;color: rgba(255, 255, 255, 0.85); font-family: &amp;quot;Helvetica Neue&amp;quot;; text-align: start; white-space: normal;&quot;&gt;&lt;font style=&quot;font-size: 24px;&quot;&gt;π&lt;/font&gt;&lt;/span&gt;Н_ЛЮДИ.ФАМИЛИЯ, Н_ВЕДОМОСТИ.&lt;span style=&quot;color:#c77dbb;&quot;&gt;ИД&lt;/span&gt;, Н_СЕССИЯ.&lt;span style=&quot;color:#c77dbb;&quot;&gt;ЧЛВК_ИД&lt;/span&gt;&lt;/pre&gt;&lt;/div&gt;" style="rounded=0;whiteSpace=wrap;html=1;" parent="1" vertex="1">
          <mxGeometry x="227" y="800" width="374" height="60" as="geometry" />
        </mxCell>
        <mxCell id="Mp42Qs7QL4VvIIkIz4l6-15" value="" style="endArrow=classic;html=1;rounded=0;exitX=0.5;exitY=1;exitDx=0;exitDy=0;entryX=0.5;entryY=0;entryDx=0;entryDy=0;" parent="1" source="Mp42Qs7QL4VvIIkIz4l6-12" target="Mp42Qs7QL4VvIIkIz4l6-14" edge="1">
          <mxGeometry width="50" height="50" relative="1" as="geometry">
            <mxPoint x="390" y="630" as="sourcePoint" />
            <mxPoint x="440" y="580" as="targetPoint" />
          </mxGeometry>
        </mxCell>
      </root>
    </mxGraphModel>
  </diagram>
</mxfile>
